<svg xmlns="http://www.w3.org/2000/svg" viewBox="0 0 231.29 327"><defs><style>.cls-1{fill:#9d937e;}.cls-2{fill:#b8b39e;}.cls-3{fill:none;stroke:#3c2415;stroke-linecap:round;stroke-linejoin:round;}</style></defs><title>Top-1</title><g id="Layer_4" data-name="Layer 4"><g id="Men_s_shirt" data-name="Men&apos;s shirt"><path class="cls-1" d="M117.22,130.84a1.34,1.34,0,1,1,.39-.94,1.34,1.34,0,0,1-.39.94Zm0,9.57a1.34,1.34,0,1,1,.39-.94,1.35,1.35,0,0,1-.39.94Zm0,9.57a1.34,1.34,0,1,1,.39-.94,1.34,1.34,0,0,1-.39.94Zm21.17-33.53c1.09.44-3.54-.54-4.59.86-1.95,2.57-12.86,8-19.61,8.33v27.14a1.33,1.33,0,0,1-2.67,0V125.63c-6.74-.36-13.38-6.09-15.33-8.66-1.05-1.39-3,.14-6.66,3.52,2.88-2.63-5.06,25.83-6.8,36.45-.9,5.52-4.41,39.39-4.95,41.94,1.71.54,17.94,20.88,36.66,20.88s40-18.39,40.36-20.15c.63-3-5.39-36.17-5.26-42.36.22-10.76-3.72-31.23-6-36.24A11.63,11.63,0,0,0,138.39,116.45Z"/><path class="cls-1" d="M103.27,137.52c-.57,4-14.64,15.11-29.83,25.27-3.53,2.36-15-16.77-12.19-19.47,12.71-12.19,25.49-23.34,29.27-22.8A15,15,0,0,1,103.27,137.52Z"/><path class="cls-2" d="M74.13,163c-1.58,1.35-3.72,2.94-5.09,2.94-2.38,0-12.26-16.84-10.37-19.72.53-1.31,2.84-3.31,4.53-4.65C64.26,140.74,75.3,162,74.13,163Z"/><path class="cls-1" d="M129.08,138.52c.57,4,14.64,15.11,29.83,25.27,3.53,2.36,15-16.77,12.19-19.47-12.71-12.19-25.49-23.34-29.27-22.8A15,15,0,0,0,129.08,138.52Z"/><path class="cls-2" d="M158.22,164c1.58,1.35,3.72,2.94,5.09,2.94,2.38,0,12.26-16.84,10.37-19.72-.53-1.31-2.84-3.31-4.53-4.65C168.09,141.74,157,163,158.22,164Z"/></g><path class="cls-3" d="M173.68,147.23c-.43-1.07-2-2.59-3.55-3.85C159.49,133.23,149,124,143.88,121.94c-.13-.34-.26-.66-.38-.92a11.63,11.63,0,0,0-5.11-4.57c1.09.44-3.54-.53-4.59.86-1.95,2.57-12.86,8-19.61,8.33v27.14a1.33,1.33,0,0,1-2.67,0V125.63c-6.74-.36-13.38-6.09-15.33-8.66-1.05-1.39-3,.14-6.66,3.52.26-.24.43-.21.53,0-4.15.27-15.93,10.49-27.85,21.87-1.5,1.26-3.12,2.78-3.55,3.85-1.89,2.88,8,19.72,10.37,19.72,1.37,0,3.51-1.59,5.09-2.94.1-.09.11-.34,0-.71,3-2,5.91-4,8.69-6,0,.23-.08.47-.12.69-.9,5.52-4.41,39.39-4.95,41.94,1.71.54,17.94,20.88,36.66,20.88s40-18.39,40.36-20.15c.63-3-5.37-36.06-5.26-42.32,2.77,2,5.68,4,8.64,6-.07.37-.07.62,0,.71,1.58,1.35,3.72,2.94,5.09,2.94C165.69,166.95,175.57,150.11,173.68,147.23ZM117.22,150a1.34,1.34,0,1,1,.39-.94A1.34,1.34,0,0,1,117.22,150Zm0-9.57a1.34,1.34,0,1,1,.39-.94A1.35,1.35,0,0,1,117.22,140.41Zm0-9.57a1.34,1.34,0,1,1,.39-.94A1.34,1.34,0,0,1,117.22,130.84Z"/></g></svg>