<svg xmlns="http://www.w3.org/2000/svg" viewBox="0 0 231.29 327"><defs><style>.cls-1{fill:#e6e7e8;stroke:#bcbec0;stroke-width:0.74px;}.cls-1,.cls-2,.cls-3,.cls-4{stroke-linecap:round;stroke-linejoin:round;}.cls-2,.cls-4{fill:#726658;}.cls-2,.cls-3,.cls-4{stroke:#3c2415;}.cls-2{stroke-width:0.85px;}.cls-3{fill:#594a42;}.cls-3,.cls-4{stroke-width:0.58px;}</style></defs><title>Feet-1</title><g id="Layer_4" data-name="Layer 4"><path class="cls-1" d="M157.19,297.06h3.57c2.45,0,5.29-1.75,5.29-4.2,0,0,.56-5.62-1.89-5.62l-7,.92c-2.45,0-5.72,5.16-5.72,5.16C153.15,295.48,154.74,297.06,157.19,297.06Z"/><path class="cls-2" d="M155.4,302.21h7.46c2.45,0,3.12-7.43,3-8.21-.61-1.34-.52-.7-3-.7H155.4c-2.45,0-3.12,2.17-3.12,4.11S152.95,302.21,155.4,302.21Z"/><path class="cls-3" d="M155.83,302.25h6.79c2.23,0,2.24-3.56,2.24-3.56s0-.93-2.24-.93h-6.79a3,3,0,0,0-2.84,2.07S153.6,302.25,155.83,302.25Z"/><path class="cls-1" d="M75,297.06H71.47c-2.45,0-5.29-1.75-5.29-4.2,0,0-.56-5.62,1.89-5.62l7,.92c2.45,0,5.72,5.16,5.72,5.16C79.07,295.48,77.48,297.06,75,297.06Z"/><path class="cls-2" d="M76.83,302.21H69.37c-2.45,0-3.12-7.43-3-8.21.61-1.34.52-.7,3-.7h7.46c2.45,0,3.12,2.17,3.12,4.11S79.28,302.21,76.83,302.21Z"/><path class="cls-4" d="M76.4,302.25H69.6c-2.23,0-2.24-3.56-2.24-3.56s0-.93,2.24-.93H76.4a3,3,0,0,1,2.84,2.07S78.63,302.25,76.4,302.25Z"/></g></svg>