<svg xmlns="http://www.w3.org/2000/svg" viewBox="0 0 188 186.98"><defs><style>.cls-1{fill:#939598;}.cls-2{fill:#a7a9ac;}.cls-3{fill:#bcbec0;stroke:#939598;stroke-miterlimit:10;stroke-width:2px;}</style></defs><title>trashcan</title><g id="Layer_3" data-name="Layer 3"><path class="cls-1" d="M148.75,60.54A63.89,63.89,0,1,0,94,157.38h.22a63.9,63.9,0,0,0,54.52-96.83Z"/><path class="cls-2" d="M147.13,61.52a62,62,0,1,0-53.13,94h.22a62,62,0,0,1,52.91-94Z"/><path class="cls-1" d="M156,93.49a61.7,61.7,0,0,0-8.87-32,62,62,0,0,0-52.91,94A62,62,0,0,0,156,93.49Z"/><rect class="cls-3" x="66" y="86.35" width="56" height="14.28" rx="7.14" ry="7.14"/></g></svg>