<svg xmlns="http://www.w3.org/2000/svg" viewBox="0 0 231.29 327"><defs><style>.cls-1,.cls-2{fill:#e5e5e5;}.cls-1,.cls-2,.cls-3{stroke:#000;stroke-linecap:round;stroke-linejoin:round;}.cls-1{stroke-width:0.8px;}.cls-2{stroke-width:0.8px;}.cls-3{fill:#fff;stroke-width:0.79px;}</style></defs><title>garments-1</title><g id="Layer_4" data-name="Layer 4"><path class="cls-1" d="M94.57,116.73c10.14,12.27-5.34,32.94,22.59,32.85,33.06-.52,20.15-18.07,18-33.45l7.33,4.23c5.53,13.08,3,22.39,3.74,35.64,1.17.52,4.29,19.54,6.64,34-26.61,6.4-47.45,6-74.61,0,3.44-25,3.54-28.3,3.48-31.87,1-1.67-.28-1.15.58-1.73,6.94-14.4,11.53-21,5.57-36.14Z"/><path class="cls-2" d="M76.32,198.24c2.84-.1,74.11-.09,78.09.32,4-.76,9.78,39.05,9.78,43.35s-27.07,6.3-29.66,5.3-12.37-14.67-12.37-14.67H111.07s-9.29,13.57-11.08,14.8-32.18.56-32.26-4.47C67.66,238.05,73.75,198.19,76.32,198.24Z"/><path class="cls-3" d="M156.47,204l-81.43.2a.68.68,0,0,1-.61-.94l1.76-4.38a.66.66,0,0,1,.61-.42l77.46-.31a.66.66,0,0,1,.59.37l2.21,4.48A.68.68,0,0,1,156.47,204Z"/></g></svg>