<svg xmlns="http://www.w3.org/2000/svg" viewBox="0 0 188 186.98"><defs><style>.cls-1,.cls-2,.cls-6{fill:#c2b59b;}.cls-2{stroke:#9b8579;stroke-width:3px;}.cls-2,.cls-5,.cls-6{stroke-miterlimit:10;}.cls-3{fill:#74645b;}.cls-4{fill:#9b8579;}.cls-5,.cls-7{fill:#2d2521;}.cls-5,.cls-6{stroke:#594a42;}</style></defs><title>manhole</title><g id="Layer_3" data-name="Layer 3"><circle class="cls-1" cx="94.26" cy="93.81" r="44.35"/><circle class="cls-2" cx="93.74" cy="93.17" r="44.35"/><rect class="cls-3" x="67.41" y="102.84" width="2.62" height="13.33"/><rect class="cls-3" x="67.41" y="86.5" width="2.62" height="13.34"/><rect class="cls-3" x="67.41" y="69.45" width="2.62" height="14.05"/><path class="cls-3" d="M70,64.25v2.59H67.41V64.25a1.31,1.31,0,0,1,2.62,0Z"/><path class="cls-3" d="M70,119.17v1.61a1.31,1.31,0,0,1-2.62,0v-1.61Z"/><rect class="cls-3" x="75.91" y="78.34" width="3" height="13.33"/><rect class="cls-3" x="75.91" y="62.16" width="3" height="13.18"/><path class="cls-3" d="M78.7,59.16H76.12a1.47,1.47,0,0,1,2.58,0Z"/><rect class="cls-3" x="75.91" y="94.67" width="3" height="13.33"/><rect class="cls-3" x="75.91" y="111" width="3" height="13.17"/><path class="cls-3" d="M78.7,127.17a1.47,1.47,0,0,1-2.58,0Z"/><rect class="cls-3" x="84.08" y="86.5" width="3" height="13.34"/><rect class="cls-3" x="84.08" y="69.45" width="3" height="14.05"/><path class="cls-3" d="M87.08,55.89v11h-3v-11a1.5,1.5,0,0,1,3,0Z"/><rect class="cls-3" x="84.08" y="102.84" width="3" height="13.33"/><path class="cls-3" d="M87.08,119.17v11.27a1.5,1.5,0,0,1-3,0V119.17Z"/><rect class="cls-3" x="92.25" y="78.34" width="3" height="13.33"/><rect class="cls-3" x="92.25" y="62.16" width="3" height="13.18"/><path class="cls-3" d="M95.25,54.89v4.27h-3V54.89a1.5,1.5,0,0,1,3,0Z"/><rect class="cls-3" x="92.25" y="94.67" width="3" height="13.33"/><rect class="cls-3" x="92.25" y="111" width="3" height="13.17"/><path class="cls-3" d="M95.25,127.17v4.27a1.5,1.5,0,0,1-3,0v-4.27Z"/><path class="cls-3" d="M103.41,55.89v11h-3v-11a1.5,1.5,0,0,1,3,0Z"/><rect class="cls-3" x="100.41" y="69.45" width="3" height="14.05"/><rect class="cls-3" x="100.41" y="86.5" width="3" height="13.34"/><rect class="cls-3" x="100.41" y="102.84" width="3" height="13.33"/><path class="cls-3" d="M103.41,119.17v11.27a1.5,1.5,0,0,1-3,0V119.17Z"/><path class="cls-3" d="M108.79,127.17h2.58a1.47,1.47,0,0,1-2.58,0Z"/><rect class="cls-3" x="108.58" y="111" width="3" height="13.17"/><rect class="cls-3" x="108.58" y="94.67" width="3" height="13.33"/><rect class="cls-3" x="108.58" y="78.34" width="3" height="13.33"/><rect class="cls-3" x="108.58" y="62.16" width="3" height="13.18"/><path class="cls-3" d="M111.37,59.16h-2.58a1.47,1.47,0,0,1,2.58,0Z"/><rect class="cls-3" x="116.75" y="86.5" width="3" height="13.34"/><rect class="cls-3" x="116.75" y="69.45" width="3" height="14.05"/><path class="cls-3" d="M119.75,64.9v1.94h-3V64.9a1.5,1.5,0,0,1,3,0Z"/><rect class="cls-3" x="116.75" y="102.84" width="3" height="13.33"/><path class="cls-3" d="M119.75,119.17v2.26a1.5,1.5,0,0,1-3,0v-2.26Z"/><path class="cls-3" d="M62.74,78.34V91.67h-3V78.14a1.43,1.43,0,0,0,.73.2Z"/><path class="cls-3" d="M62.74,72.87v2.47H60.47a1.43,1.43,0,0,0-.73.2V72.87a1.5,1.5,0,0,1,3,0Z"/><path class="cls-3" d="M62.74,94.67V108H60.47a1.43,1.43,0,0,0-.73.2V94.67Z"/><path class="cls-3" d="M62.74,111v2.46a1.5,1.5,0,0,1-3,0V110.8a1.43,1.43,0,0,0,.73.2Z"/><path class="cls-3" d="M127.75,78.13V91.67h-3V78.34H127A1.33,1.33,0,0,0,127.75,78.13Z"/><path class="cls-3" d="M127.75,72.87v2.68a1.33,1.33,0,0,0-.74-.21h-2.26V72.87a1.5,1.5,0,0,1,3,0Z"/><path class="cls-3" d="M127.75,94.67v13.54A1.33,1.33,0,0,0,127,108h-2.26V94.67Z"/><path class="cls-3" d="M127.75,110.79v2.67a1.5,1.5,0,0,1-3,0V111H127A1.33,1.33,0,0,0,127.75,110.79Z"/><path class="cls-4" d="M75.91,66.84v2.61H66.13a1.31,1.31,0,1,1,0-2.61Z"/><rect class="cls-4" x="78.91" y="66.84" width="13.34" height="2.61"/><rect class="cls-4" x="95.25" y="66.84" width="13.33" height="2.61"/><path class="cls-4" d="M124,68.14a1.31,1.31,0,0,1-1.31,1.31H111.58V66.84h11.07A1.31,1.31,0,0,1,124,68.14Z"/><path class="cls-4" d="M67.41,75.34v3H60.47a1.43,1.43,0,0,1-.73-.2,1.48,1.48,0,0,1,0-2.6,1.43,1.43,0,0,1,.73-.2Z"/><rect class="cls-4" x="70.03" y="75.34" width="14.05" height="3"/><rect class="cls-4" x="87.08" y="75.34" width="13.33" height="3"/><rect class="cls-4" x="103.41" y="75.34" width="13.34" height="3"/><path class="cls-4" d="M128.51,76.84a1.46,1.46,0,0,1-.76,1.29,1.33,1.33,0,0,1-.74.21h-7.26v-3H127a1.33,1.33,0,0,1,.74.21A1.45,1.45,0,0,1,128.51,76.84Z"/><path class="cls-4" d="M56.47,83.5h3.27v3H56.47a1.5,1.5,0,0,1,0-3Z"/><rect class="cls-4" x="62.74" y="83.5" width="13.17" height="3"/><rect class="cls-4" x="78.91" y="83.5" width="13.34" height="3"/><rect class="cls-4" x="95.25" y="83.5" width="13.33" height="3"/><rect class="cls-4" x="111.58" y="83.5" width="13.17" height="3"/><path class="cls-4" d="M132.51,85a1.5,1.5,0,0,1-1.5,1.5h-3.26v-3H131A1.5,1.5,0,0,1,132.51,85Z"/><path class="cls-4" d="M67.41,91.67v3H55.47a1.5,1.5,0,0,1,0-3Z"/><rect class="cls-4" x="70.03" y="91.67" width="14.05" height="3"/><rect class="cls-4" x="87.08" y="91.67" width="13.33" height="3"/><rect class="cls-4" x="103.41" y="91.67" width="13.34" height="3"/><path class="cls-4" d="M133.51,93.17a1.5,1.5,0,0,1-1.5,1.5H119.75v-3H132A1.5,1.5,0,0,1,133.51,93.17Z"/><path class="cls-4" d="M56.47,99.84h3.27v3H56.47a1.5,1.5,0,1,1,0-3Z"/><rect class="cls-4" x="62.74" y="99.84" width="13.17" height="3"/><rect class="cls-4" x="78.91" y="99.84" width="13.34" height="3"/><rect class="cls-4" x="95.25" y="99.84" width="13.33" height="3"/><rect class="cls-4" x="111.58" y="99.84" width="13.17" height="3"/><path class="cls-4" d="M132.51,101.34a1.5,1.5,0,0,1-1.5,1.5h-3.26v-3H131A1.5,1.5,0,0,1,132.51,101.34Z"/><path class="cls-4" d="M67.41,108v3H60.47a1.43,1.43,0,0,1-.73-.2,1.48,1.48,0,0,1,0-2.6,1.43,1.43,0,0,1,.73-.2Z"/><rect class="cls-4" x="70.03" y="108" width="14.05" height="3"/><rect class="cls-4" x="87.08" y="108" width="13.33" height="3"/><rect class="cls-4" x="103.41" y="108" width="13.34" height="3"/><path class="cls-4" d="M128.51,109.5a1.45,1.45,0,0,1-.76,1.29,1.33,1.33,0,0,1-.74.21h-7.26v-3H127a1.33,1.33,0,0,1,.74.21A1.45,1.45,0,0,1,128.51,109.5Z"/><path class="cls-4" d="M75.91,116.17v3H65.48a1.5,1.5,0,0,1,0-3Z"/><rect class="cls-4" x="78.91" y="116.17" width="13.34" height="3"/><rect class="cls-4" x="95.25" y="116.17" width="13.33" height="3"/><path class="cls-4" d="M123.51,117.67a1.5,1.5,0,0,1-1.5,1.5H111.58v-3H122A1.5,1.5,0,0,1,123.51,117.67Z"/><path class="cls-4" d="M84.08,59.16v3H73.45a1.5,1.5,0,0,1,0-3Z"/><rect class="cls-4" x="87.08" y="59.16" width="13.33" height="3"/><path class="cls-4" d="M115.54,60.66a1.5,1.5,0,0,1-1.5,1.5H103.41v-3H114A1.5,1.5,0,0,1,115.54,60.66Z"/><path class="cls-4" d="M84.08,124.17v3H73.45a1.5,1.5,0,0,1,0-3Z"/><rect class="cls-4" x="87.08" y="124.17" width="13.33" height="3"/><path class="cls-4" d="M115.54,125.67a1.5,1.5,0,0,1-1.5,1.5H103.41v-3H114A1.5,1.5,0,0,1,115.54,125.67Z"/><circle class="cls-5" cx="93.74" cy="54.39" r="3.16"/><circle class="cls-5" cx="93.74" cy="131.94" r="3.16"/><rect class="cls-6" x="64.49" y="88.17" width="58.49" height="10" rx="5" ry="5"/><path class="cls-1" d="M72.86,96.33a4.24,4.24,0,0,1-.9-.08,1.79,1.79,0,0,1-.73-.32,1.51,1.51,0,0,1-.48-.63,2.24,2.24,0,0,1-.15-.88v-.2a.32.32,0,0,1,.32-.32h1.4l-.26-.11a2.82,2.82,0,0,1-.64-.35,1.87,1.87,0,0,1-.53-.61,2,2,0,0,1-.21-1,2.11,2.11,0,0,1,.56-1.57,2.26,2.26,0,0,1,1.64-.55,2.31,2.31,0,0,1,1.65.51,2.12,2.12,0,0,1,.54,1.58.32.32,0,0,1-.32.32H73.51l.29.12a3,3,0,0,1,.66.37,1.94,1.94,0,0,1,.55.63,2.07,2.07,0,0,1,.22,1,1.91,1.91,0,0,1-.64,1.59A2.71,2.71,0,0,1,72.86,96.33ZM72.64,94a.32.32,0,0,1,.06.18v.14c0,.25.05.31.05.31a.15.15,0,0,0,.12,0c.08,0,.1,0,.11,0a.3.3,0,0,0,.06-.2.27.27,0,0,0-.08-.22A1.26,1.26,0,0,0,72.64,94Zm.23-2.64-.05,0a.27.27,0,0,0-.05.17.26.26,0,0,0,.08.21,1.17,1.17,0,0,0,.2.15.33.33,0,0,1,0-.11v-.14A.57.57,0,0,0,73,91.4Z"/><path class="cls-7" d="M72.89,90a2,2,0,0,1,1.43.42,1.81,1.81,0,0,1,.44,1.35h-1.4v-.14a.87.87,0,0,0-.11-.44.35.35,0,0,0-.32-.18.41.41,0,0,0-.36.16.59.59,0,0,0-.11.35.57.57,0,0,0,.18.45,1.67,1.67,0,0,0,.46.29l.59.25a2.63,2.63,0,0,1,.59.33,1.62,1.62,0,0,1,.46.53,1.75,1.75,0,0,1,.18.85,1.6,1.6,0,0,1-.52,1.34,2.4,2.4,0,0,1-1.52.42,4,4,0,0,1-.83-.08,1.48,1.48,0,0,1-.61-.27,1.2,1.2,0,0,1-.38-.5,1.94,1.94,0,0,1-.13-.76v-.2h1.45v.14a.77.77,0,0,0,.14.52.46.46,0,0,0,.36.15.43.43,0,0,0,.36-.16.63.63,0,0,0,.13-.4.59.59,0,0,0-.17-.45,1.54,1.54,0,0,0-.44-.28l-.57-.24a2.52,2.52,0,0,1-.57-.31,1.56,1.56,0,0,1-.44-.51,1.7,1.7,0,0,1-.17-.82,1.8,1.8,0,0,1,.47-1.34A2,2,0,0,1,72.89,90m0-.64A2.56,2.56,0,0,0,71,90a2.41,2.41,0,0,0-.66,1.79A2.32,2.32,0,0,0,70.61,93a2.24,2.24,0,0,0,.47.6h-.16a.64.64,0,0,0-.64.64v.2a2.54,2.54,0,0,0,.18,1,1.82,1.82,0,0,0,.57.75,2.12,2.12,0,0,0,.86.39,4.63,4.63,0,0,0,1,.09,3,3,0,0,0,1.91-.55,2.21,2.21,0,0,0,.77-1.84,2.38,2.38,0,0,0-.26-1.16,2.29,2.29,0,0,0-.52-.64.64.64,0,0,0,.63-.64A2.41,2.41,0,0,0,74.76,90a2.61,2.61,0,0,0-1.87-.6Z"/><path class="cls-1" d="M81.09,96.24a.32.32,0,0,1-.32-.32V90.16a.32.32,0,0,1,.32-.32h3.42a.32.32,0,0,1,.32.32v1.23a.32.32,0,0,1-.32.32h-1.6v.35h1.47a.32.32,0,0,1,.32.32v1.18a.32.32,0,0,1-.32.32H82.91v.51h1.67a.32.32,0,0,1,.32.32v1.23a.32.32,0,0,1-.32.32Z"/><path class="cls-7" d="M84.51,90.16v1.23H82.59v1h1.79v1.18H82.59V94.7h2v1.23H81.09V90.16h3.42m0-.64H81.09a.64.64,0,0,0-.64.64v5.77a.64.64,0,0,0,.64.64h3.49a.64.64,0,0,0,.64-.64V94.7a.64.64,0,0,0-.48-.62.64.64,0,0,0,.28-.53V92.37a.63.63,0,0,0-.18-.44.64.64,0,0,0,.3-.54V90.16a.64.64,0,0,0-.64-.64Z"/><path class="cls-1" d="M94.07,96.24a.32.32,0,0,1-.32-.28l-.19-1.5L93.37,96a.32.32,0,0,1-.32.28H91.41A.32.32,0,0,1,91.1,96l-1-5.77a.32.32,0,0,1,.31-.37h1.45a.32.32,0,0,1,.32.28l.17,1.52.21-1.52a.32.32,0,0,1,.32-.28h1.36a.32.32,0,0,1,.31.27l.23,1.53.15-1.51a.32.32,0,0,1,.32-.29h1.45a.32.32,0,0,1,.31.37L96,96a.32.32,0,0,1-.31.26Z"/><path class="cls-7" d="M96.71,90.16l-1,5.77H94.07L93.57,92h0l-.5,3.88H91.41l-1-5.77h1.45l.45,4h0l.54-4h1.36l.59,4h0l.4-4h1.45m0-.64H95.25a.64.64,0,0,0-.5.25.64.64,0,0,0-.5-.25H92.89a.64.64,0,0,0-.5.25.64.64,0,0,0-.5-.25H90.42a.64.64,0,0,0-.63.74l1,5.77a.64.64,0,0,0,.63.53h1.65a.64.64,0,0,0,.51-.25.64.64,0,0,0,.51.25h1.65a.64.64,0,0,0,.63-.53l1-5.77a.64.64,0,0,0-.63-.74Z"/><path class="cls-1" d="M102.71,96.24a.32.32,0,0,1-.32-.32V90.16a.32.32,0,0,1,.32-.32h3.42a.32.32,0,0,1,.32.32v1.23a.32.32,0,0,1-.32.32h-1.6v.35H106a.32.32,0,0,1,.32.32v1.18a.32.32,0,0,1-.32.32h-1.48v.51h1.67a.32.32,0,0,1,.32.32v1.23a.32.32,0,0,1-.32.32Z"/><path class="cls-7" d="M106.13,90.16v1.23h-1.91v1H106v1.18h-1.79V94.7h2v1.23h-3.49V90.16h3.42m0-.64h-3.42a.64.64,0,0,0-.64.64v5.77a.64.64,0,0,0,.64.64h3.49a.64.64,0,0,0,.64-.64V94.7a.64.64,0,0,0-.48-.62.64.64,0,0,0,.28-.53V92.37a.63.63,0,0,0-.18-.44.64.64,0,0,0,.3-.54V90.16a.64.64,0,0,0-.64-.64Z"/><path class="cls-1" d="M114.94,96.24a.32.32,0,0,1-.28-.17,1.32,1.32,0,0,1-.11-.35,3.17,3.17,0,0,1,0-.34c0-.11,0-.21,0-.31v-.63a2.5,2.5,0,0,0,0-.36.35.35,0,0,0,0-.13.27.27,0,0,0-.12,0h-.08v2a.32.32,0,0,1-.32.32h-1.5a.32.32,0,0,1-.32-.32V90.16a.32.32,0,0,1,.32-.32h2.35a2.42,2.42,0,0,1,.84.13,1.51,1.51,0,0,1,1,1,2.46,2.46,0,0,1,.1.71,2,2,0,0,1-.29,1.11,1.23,1.23,0,0,1-.21.25,1,1,0,0,1,.21.25,2.07,2.07,0,0,1,.25,1.08v.73c0,.07,0,.14,0,.21a1.59,1.59,0,0,0,0,.17l.05.1a.29.29,0,0,1,.16.27c0,.18-.14.4-.32.4Zm-.72-4c.16,0,.2-.05.21-.07a.46.46,0,0,0,.08-.3c0-.23-.05-.29-.06-.3s-.06-.05-.23-.06Z"/><path class="cls-7" d="M114.75,90.16a2.1,2.1,0,0,1,.73.11,1.26,1.26,0,0,1,.49.32,1.24,1.24,0,0,1,.27.49,2.14,2.14,0,0,1,.09.61,1.68,1.68,0,0,1-.23.94,1,1,0,0,1-.75.44v0a.9.9,0,0,1,.74.38,1.76,1.76,0,0,1,.2.91v.73c0,.08,0,.16,0,.23a1.78,1.78,0,0,0,0,.2.51.51,0,0,0,0,.14l.06.09a.31.31,0,0,0,.1.08v.08h-1.6a1,1,0,0,1-.09-.27,2.75,2.75,0,0,1,0-.31c0-.1,0-.2,0-.29s0-.17,0-.23v-.39a2.86,2.86,0,0,0,0-.4.66.66,0,0,0-.08-.25.33.33,0,0,0-.15-.13.64.64,0,0,0-.23,0h-.4v2.31h-1.5V90.16h2.35m-.85,2.44h.3a.58.58,0,0,0,.48-.19.77.77,0,0,0,.15-.5.73.73,0,0,0-.15-.52.66.66,0,0,0-.49-.15h-.29V92.6m.85-3.08H112.4a.64.64,0,0,0-.64.64v5.77a.64.64,0,0,0,.64.64h1.5a.64.64,0,0,1,1,0h1.6a.64.64,0,0,0,.64-.64v-.08a.64.64,0,0,0-.23-.49v-.07c0-.06,0-.12,0-.19v-.73a2.37,2.37,0,0,0-.29-1.24l-.05-.08,0-.07a2.31,2.31,0,0,0,.34-1.29,2.78,2.78,0,0,0-.11-.8,1.83,1.83,0,0,0-1.15-1.22,2.74,2.74,0,0,0-1-.15Z"/></g></svg>