<svg xmlns="http://www.w3.org/2000/svg" viewBox="0 0 231.29 327"><defs><style>.cls-1{fill:#231f20;}.cls-1,.cls-2,.cls-3{fill-rule:evenodd;}.cls-2{fill:#f1f2f2;}.cls-3{fill:#6d6e71;}</style></defs><title>naked-1</title><g id="Layer_4" data-name="Layer 4"><polygon class="cls-1" points="74.21 133.9 80.46 133.9 80.46 127.66 74.21 127.66 74.21 133.9 74.21 133.9"/><polygon class="cls-1" points="80.46 133.9 86.7 133.9 86.7 127.66 80.46 127.66 80.46 133.9 80.46 133.9"/><polygon class="cls-2" points="86.7 133.9 92.95 133.9 92.95 127.66 86.7 127.66 86.7 133.9 86.7 133.9"/><polygon class="cls-2" points="92.95 133.9 99.2 133.9 99.2 127.66 92.95 127.66 92.95 133.9 92.95 133.9"/><polygon class="cls-3" points="99.2 133.9 105.44 133.9 105.44 127.66 99.2 127.66 99.2 133.9 99.2 133.9"/><polygon class="cls-1" points="105.44 133.9 111.69 133.9 111.69 127.66 105.44 127.66 105.44 133.9 105.44 133.9"/><polygon class="cls-1" points="111.69 133.9 117.93 133.9 117.93 127.66 111.69 127.66 111.69 133.9 111.69 133.9"/><polygon class="cls-3" points="117.93 133.9 124.18 133.9 124.18 127.66 117.93 127.66 117.93 133.9 117.93 133.9"/><polygon class="cls-2" points="124.18 133.9 130.42 133.9 130.42 127.66 124.18 127.66 124.18 133.9 124.18 133.9"/><polygon class="cls-1" points="130.42 133.9 136.67 133.9 136.67 127.66 130.42 127.66 130.42 133.9 130.42 133.9"/><polygon class="cls-1" points="136.67 133.9 142.91 133.9 142.91 127.66 136.67 127.66 136.67 133.9 136.67 133.9"/><polygon class="cls-3" points="142.91 133.9 149.16 133.9 149.16 127.66 142.91 127.66 142.91 133.9 142.91 133.9"/><polygon class="cls-1" points="149.16 133.9 155.41 133.9 155.41 127.66 149.16 127.66 149.16 133.9 149.16 133.9"/><polygon class="cls-3" points="155.41 133.9 161.65 133.9 161.65 127.66 155.41 127.66 155.41 133.9 155.41 133.9"/><polygon class="cls-2" points="161.65 133.9 167.9 133.9 167.9 127.66 161.65 127.66 161.65 133.9 161.65 133.9"/><polygon class="cls-2" points="74.21 140.15 80.46 140.15 80.46 133.9 74.21 133.9 74.21 140.15 74.21 140.15"/><polygon class="cls-2" points="80.46 140.15 86.7 140.15 86.7 133.9 80.46 133.9 80.46 140.15 80.46 140.15"/><polygon class="cls-3" points="86.7 140.15 92.95 140.15 92.95 133.9 86.7 133.9 86.7 140.15 86.7 140.15"/><polygon class="cls-3" points="92.95 140.15 99.2 140.15 99.2 133.9 92.95 133.9 92.95 140.15 92.95 140.15"/><polygon class="cls-2" points="99.2 140.15 105.44 140.15 105.44 133.9 99.2 133.9 99.2 140.15 99.2 140.15"/><polygon class="cls-2" points="105.44 140.15 111.69 140.15 111.69 133.9 105.44 133.9 105.44 140.15 105.44 140.15"/><polygon class="cls-1" points="111.69 140.15 117.93 140.15 117.93 133.9 111.69 133.9 111.69 140.15 111.69 140.15"/><polygon class="cls-2" points="117.93 140.15 124.18 140.15 124.18 133.9 117.93 133.9 117.93 140.15 117.93 140.15"/><polygon class="cls-3" points="124.18 140.15 130.42 140.15 130.42 133.9 124.18 133.9 124.18 140.15 124.18 140.15"/><polygon class="cls-2" points="130.42 140.15 136.67 140.15 136.67 133.9 130.42 133.9 130.42 140.15 130.42 140.15"/><polygon class="cls-1" points="136.67 140.15 142.91 140.15 142.91 133.9 136.67 133.9 136.67 140.15 136.67 140.15"/><polygon class="cls-3" points="142.91 140.15 149.16 140.15 149.16 133.9 142.91 133.9 142.91 140.15 142.91 140.15"/><polygon class="cls-2" points="149.16 140.15 155.41 140.15 155.41 133.9 149.16 133.9 149.16 140.15 149.16 140.15"/><polygon class="cls-1" points="155.41 140.15 161.65 140.15 161.65 133.9 155.41 133.9 155.41 140.15 155.41 140.15"/><polygon class="cls-1" points="161.65 140.15 167.9 140.15 167.9 133.9 161.65 133.9 161.65 140.15 161.65 140.15"/><polygon class="cls-3" points="74.21 146.4 80.46 146.4 80.46 140.15 74.21 140.15 74.21 146.4 74.21 146.4"/><polygon class="cls-1" points="80.46 146.4 86.7 146.4 86.7 140.15 80.46 140.15 80.46 146.4 80.46 146.4"/><polygon class="cls-2" points="86.7 146.4 92.95 146.4 92.95 140.15 86.7 140.15 86.7 146.4 86.7 146.4"/><polygon class="cls-2" points="92.95 146.4 99.2 146.4 99.2 140.15 92.95 140.15 92.95 146.4 92.95 146.4"/><polygon class="cls-3" points="99.2 146.4 105.44 146.4 105.44 140.15 99.2 140.15 99.2 146.4 99.2 146.4"/><polygon class="cls-1" points="105.44 146.4 111.69 146.4 111.69 140.15 105.44 140.15 105.44 146.4 105.44 146.4"/><polygon class="cls-2" points="111.69 146.4 117.93 146.4 117.93 140.15 111.69 140.15 111.69 146.4 111.69 146.4"/><polygon class="cls-1" points="117.93 146.4 124.18 146.4 124.18 140.15 117.93 140.15 117.93 146.4 117.93 146.4"/><polygon class="cls-3" points="124.18 146.4 130.42 146.4 130.42 140.15 124.18 140.15 124.18 146.4 124.18 146.4"/><polygon class="cls-2" points="130.42 146.4 136.67 146.4 136.67 140.15 130.42 140.15 130.42 146.4 130.42 146.4"/><polygon class="cls-1" points="136.67 146.4 142.91 146.4 142.91 140.15 136.67 140.15 136.67 146.4 136.67 146.4"/><polygon class="cls-1" points="142.91 146.4 149.16 146.4 149.16 140.15 142.91 140.15 142.91 146.4 142.91 146.4"/><polygon class="cls-2" points="149.16 146.4 155.41 146.4 155.41 140.15 149.16 140.15 149.16 146.4 149.16 146.4"/><polygon class="cls-3" points="155.41 146.4 161.65 146.4 161.65 140.15 155.41 140.15 155.41 146.4 155.41 146.4"/><polygon class="cls-2" points="161.65 146.4 167.9 146.4 167.9 140.15 161.65 140.15 161.65 146.4 161.65 146.4"/><polygon class="cls-3" points="74.21 152.64 80.46 152.64 80.46 146.4 74.21 146.4 74.21 152.64 74.21 152.64"/><polygon class="cls-1" points="80.46 152.64 86.7 152.64 86.7 146.4 80.46 146.4 80.46 152.64 80.46 152.64"/><polygon class="cls-1" points="86.7 152.64 92.95 152.64 92.95 146.4 86.7 146.4 86.7 152.64 86.7 152.64"/><polygon class="cls-3" points="92.95 152.64 99.2 152.64 99.2 146.4 92.95 146.4 92.95 152.64 92.95 152.64"/><polygon class="cls-1" points="99.2 152.64 105.44 152.64 105.44 146.4 99.2 146.4 99.2 152.64 99.2 152.64"/><polygon class="cls-1" points="105.44 152.64 111.69 152.64 111.69 146.4 105.44 146.4 105.44 152.64 105.44 152.64"/><polygon class="cls-3" points="111.69 152.64 117.93 152.64 117.93 146.4 111.69 146.4 111.69 152.64 111.69 152.64"/><polygon class="cls-2" points="117.93 152.64 124.18 152.64 124.18 146.4 117.93 146.4 117.93 152.64 117.93 152.64"/><polygon class="cls-1" points="124.18 152.64 130.42 152.64 130.42 146.4 124.18 146.4 124.18 152.64 124.18 152.64"/><polygon class="cls-3" points="130.42 152.64 136.67 152.64 136.67 146.4 130.42 146.4 130.42 152.64 130.42 152.64"/><polygon class="cls-3" points="136.67 152.64 142.91 152.64 142.91 146.4 136.67 146.4 136.67 152.64 136.67 152.64"/><polygon class="cls-3" points="142.91 152.64 149.16 152.64 149.16 146.4 142.91 146.4 142.91 152.64 142.91 152.64"/><polygon class="cls-2" points="149.16 152.64 155.41 152.64 155.41 146.4 149.16 146.4 149.16 152.64 149.16 152.64"/><polygon class="cls-1" points="155.41 152.64 161.65 152.64 161.65 146.4 155.41 146.4 155.41 152.64 155.41 152.64"/><polygon class="cls-3" points="161.65 152.64 167.9 152.64 167.9 146.4 161.65 146.4 161.65 152.64 161.65 152.64"/><polygon class="cls-3" points="74.21 158.89 80.46 158.89 80.46 152.64 74.21 152.64 74.21 158.89 74.21 158.89"/><polygon class="cls-1" points="80.46 158.89 86.7 158.89 86.7 152.64 80.46 152.64 80.46 158.89 80.46 158.89"/><polygon class="cls-1" points="86.7 158.89 92.95 158.89 92.95 152.64 86.7 152.64 86.7 158.89 86.7 158.89"/><polygon class="cls-3" points="92.95 158.89 99.2 158.89 99.2 152.64 92.95 152.64 92.95 158.89 92.95 158.89"/><polygon class="cls-3" points="99.2 158.89 105.44 158.89 105.44 152.64 99.2 152.64 99.2 158.89 99.2 158.89"/><polygon class="cls-2" points="105.44 158.89 111.69 158.89 111.69 152.64 105.44 152.64 105.44 158.89 105.44 158.89"/><polygon class="cls-2" points="111.69 158.89 117.93 158.89 117.93 152.64 111.69 152.64 111.69 158.89 111.69 158.89"/><polygon class="cls-1" points="117.93 158.89 124.18 158.89 124.18 152.64 117.93 152.64 117.93 158.89 117.93 158.89"/><polygon class="cls-1" points="124.18 158.89 130.42 158.89 130.42 152.64 124.18 152.64 124.18 158.89 124.18 158.89"/><polygon class="cls-1" points="130.42 158.89 136.67 158.89 136.67 152.64 130.42 152.64 130.42 158.89 130.42 158.89"/><polygon class="cls-2" points="136.67 158.89 142.91 158.89 142.91 152.64 136.67 152.64 136.67 158.89 136.67 158.89"/><polygon class="cls-2" points="142.91 158.89 149.16 158.89 149.16 152.64 142.91 152.64 142.91 158.89 142.91 158.89"/><polygon class="cls-2" points="149.16 158.89 155.41 158.89 155.41 152.64 149.16 152.64 149.16 158.89 149.16 158.89"/><polygon class="cls-1" points="155.41 158.89 161.65 158.89 161.65 152.64 155.41 152.64 155.41 158.89 155.41 158.89"/><polygon class="cls-1" points="161.65 158.89 167.9 158.89 167.9 152.64 161.65 152.64 161.65 158.89 161.65 158.89"/><polygon class="cls-3" points="102.32 198.99 108.56 198.99 108.56 192.75 102.32 192.75 102.32 198.99 102.32 198.99"/><polygon class="cls-3" points="108.56 198.99 114.81 198.99 114.81 192.75 108.56 192.75 108.56 198.99 108.56 198.99"/><polygon class="cls-3" points="114.81 198.99 121.06 198.99 121.06 192.75 114.81 192.75 114.81 198.99 114.81 198.99"/><polygon class="cls-2" points="121.06 198.99 127.3 198.99 127.3 192.75 121.06 192.75 121.06 198.99 121.06 198.99"/><polygon class="cls-3" points="127.3 198.99 133.55 198.99 133.55 192.75 127.3 192.75 127.3 198.99 127.3 198.99"/><polygon class="cls-2" points="133.55 198.99 139.79 198.99 139.79 192.75 133.55 192.75 133.55 198.99 133.55 198.99"/><polygon class="cls-2" points="139.79 198.99 146.04 198.99 146.04 192.75 139.79 192.75 139.79 198.99 139.79 198.99"/><polygon class="cls-1" points="146.04 198.99 152.28 198.99 152.28 192.75 146.04 192.75 146.04 198.99 146.04 198.99"/><polygon class="cls-2" points="152.28 198.99 158.53 198.99 158.53 192.75 152.28 192.75 152.28 198.99 152.28 198.99"/><polygon class="cls-3" points="102.32 205.24 108.56 205.24 108.56 198.99 102.32 198.99 102.32 205.24 102.32 205.24"/><polygon class="cls-2" points="108.56 205.24 114.81 205.24 114.81 198.99 108.56 198.99 108.56 205.24 108.56 205.24"/><polygon class="cls-3" points="114.81 205.24 121.06 205.24 121.06 198.99 114.81 198.99 114.81 205.24 114.81 205.24"/><polygon class="cls-3" points="121.06 205.24 127.3 205.24 127.3 198.99 121.06 198.99 121.06 205.24 121.06 205.24"/><polygon class="cls-2" points="127.3 205.24 133.55 205.24 133.55 198.99 127.3 198.99 127.3 205.24 127.3 205.24"/><polygon class="cls-1" points="133.55 205.24 139.79 205.24 139.79 198.99 133.55 198.99 133.55 205.24 133.55 205.24"/><polygon class="cls-1" points="139.79 205.24 146.04 205.24 146.04 198.99 139.79 198.99 139.79 205.24 139.79 205.24"/><polygon class="cls-1" points="102.32 211.48 108.56 211.48 108.56 205.24 102.32 205.24 102.32 211.48 102.32 211.48"/><polygon class="cls-3" points="108.56 211.48 114.81 211.48 114.81 205.24 108.56 205.24 108.56 211.48 108.56 211.48"/><polygon class="cls-3" points="114.81 211.48 121.06 211.48 121.06 205.24 114.81 205.24 114.81 211.48 114.81 211.48"/><polygon class="cls-3" points="121.06 211.48 127.3 211.48 127.3 205.24 121.06 205.24 121.06 211.48 121.06 211.48"/><polygon class="cls-2" points="127.3 211.48 133.55 211.48 133.55 205.24 127.3 205.24 127.3 211.48 127.3 211.48"/><polygon class="cls-3" points="133.55 211.48 139.79 211.48 139.79 205.24 133.55 205.24 133.55 211.48 133.55 211.48"/><polygon class="cls-3" points="139.79 211.48 146.04 211.48 146.04 205.24 139.79 205.24 139.79 211.48 139.79 211.48"/><polygon class="cls-2" points="102.32 217.73 108.56 217.73 108.56 211.48 102.32 211.48 102.32 217.73 102.32 217.73"/><polygon class="cls-2" points="108.56 217.73 114.81 217.73 114.81 211.48 108.56 211.48 108.56 217.73 108.56 217.73"/><polygon class="cls-3" points="114.81 217.73 121.06 217.73 121.06 211.48 114.81 211.48 114.81 217.73 114.81 217.73"/><polygon class="cls-3" points="121.06 217.73 127.3 217.73 127.3 211.48 121.06 211.48 121.06 217.73 121.06 217.73"/><polygon class="cls-1" points="127.3 217.73 133.55 217.73 133.55 211.48 127.3 211.48 127.3 217.73 127.3 217.73"/><polygon class="cls-1" points="133.55 217.73 139.79 217.73 139.79 211.48 133.55 211.48 133.55 217.73 133.55 217.73"/><polygon class="cls-1" points="139.79 217.73 146.04 217.73 146.04 211.48 139.79 211.48 139.79 217.73 139.79 217.73"/><polygon class="cls-1" points="146.04 217.73 152.28 217.73 152.28 211.48 146.04 211.48 146.04 217.73 146.04 217.73"/><polygon class="cls-2" points="152.28 217.73 158.53 217.73 158.53 211.48 152.28 211.48 152.28 217.73 152.28 217.73"/><polygon class="cls-2" points="102.32 223.97 108.56 223.97 108.56 217.73 102.32 217.73 102.32 223.97 102.32 223.97"/><polygon class="cls-1" points="108.56 223.97 114.81 223.97 114.81 217.73 108.56 217.73 108.56 223.97 108.56 223.97"/><polygon class="cls-2" points="114.81 223.97 121.06 223.97 121.06 217.73 114.81 217.73 114.81 223.97 114.81 223.97"/><polygon class="cls-3" points="121.06 223.97 127.3 223.97 127.3 217.73 121.06 217.73 121.06 223.97 121.06 223.97"/><polygon class="cls-2" points="127.3 223.97 133.55 223.97 133.55 217.73 127.3 217.73 127.3 223.97 127.3 223.97"/><polygon class="cls-1" points="133.55 223.97 139.79 223.97 139.79 217.73 133.55 217.73 133.55 223.97 133.55 223.97"/><polygon class="cls-3" points="139.79 223.97 146.04 223.97 146.04 217.73 139.79 217.73 139.79 223.97 139.79 223.97"/><polygon class="cls-1" points="146.04 223.97 152.28 223.97 152.28 217.73 146.04 217.73 146.04 223.97 146.04 223.97"/><polygon class="cls-3" points="152.28 223.97 158.53 223.97 158.53 217.73 152.28 217.73 152.28 223.97 152.28 223.97"/><polygon class="cls-2" points="102.32 230.22 108.56 230.22 108.56 223.97 102.32 223.97 102.32 230.22 102.32 230.22"/><polygon class="cls-2" points="108.56 230.22 114.81 230.22 114.81 223.97 108.56 223.97 108.56 230.22 108.56 230.22"/><polygon class="cls-3" points="77.34 198.99 83.58 198.99 83.58 192.75 77.34 192.75 77.34 198.99 77.34 198.99"/><polygon class="cls-2" points="77.34 205.24 83.58 205.24 83.58 198.99 77.34 198.99 77.34 205.24 77.34 205.24"/><polygon class="cls-3" points="77.34 211.48 83.58 211.48 83.58 205.24 77.34 205.24 77.34 211.48 77.34 211.48"/><polygon class="cls-2" points="77.34 217.73 83.58 217.73 83.58 211.48 77.34 211.48 77.34 217.73 77.34 217.73"/><polygon class="cls-1" points="77.34 223.97 83.58 223.97 83.58 217.73 77.34 217.73 77.34 223.97 77.34 223.97"/><polygon class="cls-2" points="77.34 230.22 83.58 230.22 83.58 223.97 77.34 223.97 77.34 230.22 77.34 230.22"/><polygon class="cls-2" points="114.81 230.22 121.06 230.22 121.06 223.97 114.81 223.97 114.81 230.22 114.81 230.22"/><polygon class="cls-3" points="121.06 230.22 127.3 230.22 127.3 223.97 121.06 223.97 121.06 230.22 121.06 230.22"/><polygon class="cls-1" points="127.3 230.22 133.55 230.22 133.55 223.97 127.3 223.97 127.3 230.22 127.3 230.22"/><polygon class="cls-1" points="133.55 230.22 139.79 230.22 139.79 223.97 133.55 223.97 133.55 230.22 133.55 230.22"/><polygon class="cls-2" points="139.79 230.22 146.04 230.22 146.04 223.97 139.79 223.97 139.79 230.22 139.79 230.22"/><polygon class="cls-1" points="146.04 230.22 152.28 230.22 152.28 223.97 146.04 223.97 146.04 230.22 146.04 230.22"/><polygon class="cls-3" points="152.28 230.22 158.53 230.22 158.53 223.97 152.28 223.97 152.28 230.22 152.28 230.22"/><polygon class="cls-3" points="96.07 192.75 96.07 198.99 102.32 198.99 102.32 192.75 96.07 192.75 96.07 192.75"/><polygon class="cls-2" points="96.07 198.99 96.07 205.24 102.32 205.24 102.32 198.99 96.07 198.99 96.07 198.99"/><polygon class="cls-3" points="96.07 205.24 96.07 211.48 102.32 211.48 102.32 205.24 96.07 205.24 96.07 205.24"/><polygon class="cls-2" points="96.07 211.48 96.07 217.73 102.32 217.73 102.32 211.48 96.07 211.48 96.07 211.48"/><polygon class="cls-3" points="96.07 217.73 96.07 223.97 102.32 223.97 102.32 217.73 96.07 217.73 96.07 217.73"/><polygon class="cls-1" points="96.07 223.97 96.07 230.22 102.32 230.22 102.32 223.97 96.07 223.97 96.07 223.97"/><polygon class="cls-1" points="89.83 192.75 89.83 198.99 96.07 198.99 96.07 192.75 89.83 192.75 89.83 192.75"/><polygon class="cls-2" points="89.83 198.99 89.83 205.24 96.07 205.24 96.07 198.99 89.83 198.99 89.83 198.99"/><polygon class="cls-3" points="89.83 205.24 89.83 211.48 96.07 211.48 96.07 205.24 89.83 205.24 89.83 205.24"/><polygon class="cls-2" points="89.83 211.48 89.83 217.73 96.07 217.73 96.07 211.48 89.83 211.48 89.83 211.48"/><polygon class="cls-3" points="89.83 217.73 89.83 223.97 96.07 223.97 96.07 217.73 89.83 217.73 89.83 217.73"/><polygon class="cls-2" points="89.83 223.97 89.83 230.22 96.07 230.22 96.07 223.97 89.83 223.97 89.83 223.97"/><polygon class="cls-3" points="83.58 192.75 83.58 198.99 89.83 198.99 89.83 192.75 83.58 192.75 83.58 192.75"/><polygon class="cls-2" points="83.58 198.99 83.58 205.24 89.83 205.24 89.83 198.99 83.58 198.99 83.58 198.99"/><polygon class="cls-2" points="83.58 205.24 83.58 211.48 89.83 211.48 89.83 205.24 83.58 205.24 83.58 205.24"/><polygon class="cls-2" points="83.58 211.48 83.58 217.73 89.83 217.73 89.83 211.48 83.58 211.48 83.58 211.48"/><polygon class="cls-2" points="83.58 217.73 83.58 223.97 89.83 223.97 89.83 217.73 83.58 217.73 83.58 217.73"/><polygon class="cls-3" points="83.58 223.97 83.58 230.22 89.83 230.22 89.83 223.97 83.58 223.97 83.58 223.97"/><polygon class="cls-3" points="146.04 205.24 152.28 205.24 152.28 198.99 146.04 198.99 146.04 205.24 146.04 205.24"/><polygon class="cls-2" points="152.28 205.24 158.53 205.24 158.53 198.99 152.28 198.99 152.28 205.24 152.28 205.24"/><polygon class="cls-3" points="146.04 211.48 152.28 211.48 152.28 205.24 146.04 205.24 146.04 211.48 146.04 211.48"/><polygon class="cls-3" points="152.28 211.48 158.53 211.48 158.53 205.24 152.28 205.24 152.28 211.48 152.28 211.48"/></g></svg>