<svg xmlns="http://www.w3.org/2000/svg" viewBox="0 0 188 186.98"><defs><style>.cls-1{fill:#1b75bc;}.cls-1,.cls-2,.cls-6{stroke:#231f20;}.cls-1,.cls-2,.cls-3,.cls-4,.cls-5,.cls-6{stroke-miterlimit:10;}.cls-2{fill:#e9c8bc;}.cls-3{fill:#ffb482;}.cls-3,.cls-4,.cls-5{stroke:#f15a29;}.cls-4{fill:#ff822e;}.cls-5{fill:#ff9b58;}.cls-6{fill:none;}</style></defs><title>npc-01</title><g id="Layer_3" data-name="Layer 3"><circle class="cls-1" cx="57.02" cy="90.7" r="25"/><circle class="cls-1" cx="130.98" cy="90.7" r="25"/><path class="cls-2" d="M92.53,39.7a1.69,1.69,0,0,1,2.93,0l2,3.41,2,3.41a1.69,1.69,0,0,1-1.47,2.54H90.06a1.69,1.69,0,0,1-1.47-2.54l2-3.41Z"/><path class="cls-2" d="M141,90.7c0,31.48-15.51,47-47,47s-47-15.51-47-47,15.51-47,47-47S141,59.22,141,90.7Z"/><g id="Blond_Short_Hair" data-name="Blond Short Hair"><g id="shaded_hair" data-name="shaded hair"><path class="cls-3" d="M75.52,66.93c2.55.26,4.71,1.5,6.88,2.22,11,9,25,16,38,10,6.19-2.81,11.11-7.84,16.19-12.77a36.17,36.17,0,0,0-5.21-8.54c-9-.27-11.59,16.1-24.15,15C83.83,72.43,81.83,59.68,74.11,61A8.51,8.51,0,0,1,75.52,66.93Z"/><path class="cls-4" d="M83.4,77.15A27.33,27.33,0,0,0,71,72.82a35.89,35.89,0,0,1-12,4.57,27,27,0,0,1-11,.34A76.06,76.06,0,0,0,47,90.83c0,31.48,15.51,47,47,47s46.88-15.41,47-46.66q-.79.51-1.59,1C118.4,100.15,100.4,88.15,83.4,77.15Z"/><path class="cls-5" d="M136.59,66.38c-5.08,4.93-10,10-16.19,12.77-13,6-27-1-38-10-2.17-.72-4.34-2-6.88-2.22-.41,2.27-2,4.23-4.48,5.88A27.33,27.33,0,0,1,83.4,77.15c17,11,35,23,56,15q.8-.48,1.59-1c0-.11,0-.22,0-.33Q141,76.35,136.59,66.38Z"/></g><path class="cls-6" d="M141,90.7c0,31.48-15.51,47-47,47s-47-15.51-47-47,15.51-47,47-47S141,59.22,141,90.7Z"/></g></g></svg>