<svg xmlns="http://www.w3.org/2000/svg" viewBox="0 0 231.29 327"><defs><style>.cls-1{fill:#4b77c2;}.cls-2{fill:#2b3990;}.cls-3{fill:#262262;}.cls-4{fill:none;stroke:#2b3990;stroke-linecap:round;stroke-linejoin:round;stroke-width:0.98px;}</style></defs><title>Bottom-1</title><g id="Layer_3" data-name="Layer 3"><path class="cls-1" d="M112,214.92c4.84,15.52-15.18,53.68-28.4,75-3,4.78-18.58-1.92-18.46-4.7.85-18.35,4.66-88.12,13.35-90.06C88.52,192.95,108.4,203.34,112,214.92Z"/><path class="cls-2" d="M81.38,208.68c-1.51,1.12-7.07-.1-8.4.19.35-5.25,2.77-12.11,3.53-12.63s7.93-.57,9.59.67S81.38,208.68,81.38,208.68Z"/><path class="cls-1" d="M148.59,196.17H92.17a3.31,3.31,0,0,0-3.26,3.12c-.45,6.25-1,.6-1.59,11.48-.11,1.94-.42,5.78,8.11,14.59s40.42,3.77,44.07,0,9.09-12.52,9.09-14.38v-14.8Z"/><path class="cls-1" d="M120.33,214.92c-4.84,15.52,15.18,53.68,28.4,75,3,4.78,18.58-1.92,18.46-4.7-.85-18.35-4.66-88.12-13.35-90.06C143.83,192.95,123.94,203.34,120.33,214.92Z"/><path class="cls-2" d="M151,208.68c1.51,1.12,7.07-.1,8.4.19-.35-5.25-2.77-12.11-3.53-12.63s-7.93-.57-9.59.67S151,208.68,151,208.68Z"/><path class="cls-3" d="M153.83,193.66H77.56A30.64,30.64,0,0,0,76,197h79.36A13.14,13.14,0,0,0,153.83,193.66Z"/><path class="cls-2" d="M119.59,221.91V197h-2.3v33.24c1.15-1.17,2.3-3.53,2.3-8.34Z"/><path class="cls-4" d="M158.59,203.93c-.88-3.85-2.23-7.32-2.75-7.69a1.92,1.92,0,0,0-.65-.18l-.27-.27a12.57,12.57,0,0,0-1.08-2.13H77.56A30.64,30.64,0,0,0,76,197h0a35.54,35.54,0,0,0-2.26,6.93c-5.37,19.68-7.92,66.73-8.59,81.31-.13,2.78,15.49,9.48,18.46,4.7,9.92-16,23.66-41.47,27.87-59.75,1.91.08,8.18-.14,9.33-.23,4.14,18.3,18,43.92,27.92,60,3,4.78,18.58-1.92,18.46-4.7C166.51,270.66,164,223.61,158.59,203.93Z"/></g></svg>